HIERARCHY
ROOT joint_Root
{
	OFFSET 0.0 0.0 0.0
	CHANNELS 6 Xposition Yposition Zposition Zrotation Xrotation Yrotation 
	JOINT Hips
	{
		OFFSET -17.1583 93.1646 452.98
		CHANNELS 6 Xposition Yposition Zposition Zrotation Xrotation Yrotation 
		JOINT Spine
		{
			OFFSET 15.7357 0.0 0.0
			CHANNELS 6 Xposition Yposition Zposition Zrotation Xrotation Yrotation 
			JOINT Chest
			{
				OFFSET 8.98455 -0.406207 0.0
				CHANNELS 6 Xposition Yposition Zposition Zrotation Xrotation Yrotation 
				JOINT Neck
				{
					OFFSET 16.3773 0.0 0.0
					CHANNELS 6 Xposition Yposition Zposition Zrotation Xrotation Yrotation 
					JOINT Head
					{
						OFFSET 6.45672 0.0 0.0
						CHANNELS 6 Xposition Yposition Zposition Zrotation Xrotation Yrotation 
						End Site
						{
							OFFSET 0.0 0.0 0.0
						}
					}
				}
				JOINT Shoulder_L
				{
					OFFSET 12.9942 -0.242716 4.98039
					CHANNELS 6 Xposition Yposition Zposition Zrotation Xrotation Yrotation 
					JOINT UpperArm_L
					{
						OFFSET 5.34809 0.0 0.0
						CHANNELS 6 Xposition Yposition Zposition Zrotation Xrotation Yrotation 
						JOINT LowerArm_L
						{
							OFFSET 24.3286 1.87007e-05 0.0
							CHANNELS 6 Xposition Yposition Zposition Zrotation Xrotation Yrotation 
							JOINT Hand_L
							{
								OFFSET 22.2916 0.0 0.0
								CHANNELS 6 Xposition Yposition Zposition Zrotation Xrotation Yrotation 
								End Site
								{
									OFFSET 0.0 0.0 0.0
								}
							}
						}
					}
				}
				JOINT Shoulder_R
				{
					OFFSET 12.9945 -0.242716 -4.98039
					CHANNELS 6 Xposition Yposition Zposition Zrotation Xrotation Yrotation 
					JOINT UpperArm_R
					{
						OFFSET -5.34813 0.0 0.0
						CHANNELS 6 Xposition Yposition Zposition Zrotation Xrotation Yrotation 
						JOINT LowerArm_R
						{
							OFFSET -24.3289 0.000322201 0.0
							CHANNELS 6 Xposition Yposition Zposition Zrotation Xrotation Yrotation 
							JOINT Hand_R
							{
								OFFSET -22.2915 -0.000108084 0.0
								CHANNELS 6 Xposition Yposition Zposition Zrotation Xrotation Yrotation 
								End Site
								{
									OFFSET 0.0 0.0 0.0
								}
							}
						}
					}
				}
			}
		}
		JOINT UpperLeg_L
		{
			OFFSET -2.19248 -6.46944 0.0
			CHANNELS 6 Xposition Yposition Zposition Zrotation Xrotation Yrotation 
			JOINT LowerLeg_L
			{
				OFFSET 39.0811 0.0 -1.23785e-05
				CHANNELS 6 Xposition Yposition Zposition Zrotation Xrotation Yrotation 
				JOINT Foot_L
				{
					OFFSET 40.9854 0.0 -1.26872e-05
					CHANNELS 6 Xposition Yposition Zposition Zrotation Xrotation Yrotation 
					JOINT Toes_L
					{
						OFFSET 11.7543 0.0 0.0
						CHANNELS 6 Xposition Yposition Zposition Zrotation Xrotation Yrotation 
						End Site
						{
							OFFSET 0.0 0.0 0.0
						}
					}
				}
			}
		}
		JOINT UpperLeg_R
		{
			OFFSET -2.19251 6.46944 0.0
			CHANNELS 6 Xposition Yposition Zposition Zrotation Xrotation Yrotation 
			JOINT LowerLeg_R
			{
				OFFSET -39.0811 -0.00228153 -0.0401928
				CHANNELS 6 Xposition Yposition Zposition Zrotation Xrotation Yrotation 
				JOINT Foot_R
				{
					OFFSET -40.9854 0.0 0.0
					CHANNELS 6 Xposition Yposition Zposition Zrotation Xrotation Yrotation 
					JOINT Toes_R
					{
						OFFSET -11.7543 0.0 0.0
						CHANNELS 6 Xposition Yposition Zposition Zrotation Xrotation Yrotation 
						End Site
						{
							OFFSET 0.0 0.0 0.0
						}
					}
				}
			}
		}
	}
}
MOTION
Frames:	5
Frame Time:	0.0333333
0.000000 0.000000 0.000000 0.000000 0.000000 -0.000000 -0.229582 82.677400 -464.870000 85.021100 1.316680 -15.440400 15.735700 0.000005 -0.000001 95.177200 79.773000 -90.635000 8.984550 -0.406207 -0.000000 12.545600 2.017860 8.862000 16.377300 -0.000001 -0.000001 -9.219360 2.536690 -1.554500 6.456720 -0.000001 -0.000000 -22.096600 4.188010 -5.663180 12.994200 -0.242716 4.980390 -92.779500 8.516970 -71.850200 5.348090 -0.000007 -0.000001 -56.441700 -5.193890 8.546090 24.328600 0.000019 0.000005 5.091460 39.471800 -7.977880 22.291600 -0.000001 0.000005 -8.234760 4.975240 7.831800 12.994500 -0.242716 -4.980390 89.187500 2.908020 -74.381500 -5.348130 -0.000001 -0.000004 -55.169000 9.407550 -19.474000 -24.328900 0.000322 -0.000009 3.866310 4.752720 -39.301800 -22.291500 -0.000108 -0.000004 7.872130 5.352590 -1.333400 -2.192480 -6.469440 -0.000000 -171.610000 -2.714160 -35.534800 39.081100 -0.000007 -0.000012 0.225270 -0.001331 89.659200 40.985400 -0.000006 -0.000013 -9.947910 14.031200 -40.049200 11.754300 -0.000000 0.000003 0.002129 0.051976 -14.468500 -2.192510 6.469440 -0.000001 -172.764000 8.977250 151.784000 -39.081100 -0.002282 -0.040193 0.007352 -0.002606 57.801000 -40.985400 0.000008 0.000006 -7.716510 7.886640 -91.838700 -11.754300 -0.000006 -0.000006 0.002457 0.074450 -13.553700
0.000000 0.000000 0.000000 0.000000 0.000000 -0.000000 0.290855 84.322500 -458.169000 87.928400 1.212800 -15.284900 15.735700 0.000005 -0.000001 97.969800 79.970300 -94.695900 8.984550 -0.406207 -0.000000 12.036000 2.878690 6.243550 16.377300 -0.000001 -0.000001 -8.059510 1.512010 -1.017400 6.456720 -0.000001 -0.000000 -20.921600 1.943390 -5.159080 12.994200 -0.242716 4.980390 -92.775400 7.903610 -70.579200 5.348090 -0.000007 -0.000001 -48.119800 -9.313620 13.655600 24.328600 0.000019 0.000005 3.346620 37.317800 -5.508190 22.291600 -0.000001 0.000005 -1.037030 4.922040 8.886760 12.994500 -0.242716 -4.980390 89.301100 2.464590 -74.162400 -5.348130 -0.000001 -0.000004 -53.910400 6.151930 -20.424800 -24.328900 0.000322 -0.000009 -0.563433 -0.398979 -53.560500 -22.291500 -0.000108 -0.000004 13.463200 5.438090 -4.210590 -2.192480 -6.469440 -0.000000 -175.945000 -2.639460 -44.002700 39.081100 -0.000007 -0.000012 0.110554 0.003996 92.065300 40.985400 -0.000006 -0.000013 -6.029400 8.954760 -48.941900 11.754300 -0.000000 0.000003 0.002245 0.057646 -14.238600 -2.192510 6.469440 -0.000001 -177.464000 13.007700 160.093000 -39.081100 -0.002282 -0.040193 0.019497 -0.013396 50.501300 -40.985400 0.000008 0.000006 -7.987960 11.804600 -87.235900 -11.754300 -0.000006 -0.000006 -0.001629 -0.023969 -17.547800
0.000000 0.000000 0.000000 0.000000 0.000000 -0.000000 0.939273 86.642700 -451.117000 91.246500 0.964636 -16.810700 15.735700 0.000005 -0.000001 101.471000 80.855700 -99.716000 8.984550 -0.406207 -0.000000 10.118500 3.649460 3.184500 16.377300 -0.000001 -0.000001 -6.907470 0.383938 -0.492061 6.456720 -0.000001 -0.000000 -19.701500 -0.457295 -4.146620 12.994200 -0.242716 4.980390 -92.501500 6.875330 -69.950200 5.348090 -0.000007 -0.000001 -40.074000 -13.727700 18.216600 24.328600 0.000019 0.000005 2.057650 30.003500 -4.108550 22.291600 -0.000001 0.000005 9.038410 4.754630 12.040500 12.994500 -0.242716 -4.980390 89.518800 1.690860 -74.112300 -5.348130 -0.000001 -0.000004 -54.660000 2.390070 -19.868300 -24.328900 0.000322 -0.000009 -8.904930 -4.040270 -65.721100 -22.291500 -0.000108 -0.000004 14.717300 5.454540 -4.802310 -2.192480 -6.469440 -0.000000 178.977000 -2.167170 -50.960200 39.081100 -0.000007 -0.000012 0.007353 -0.000303 87.569300 40.985400 -0.000006 -0.000013 -4.343270 5.022770 -57.050900 11.754300 -0.000000 0.000003 0.002229 0.056813 -14.272400 -2.192510 6.469440 -0.000001 177.430000 16.415100 167.850000 -39.081100 -0.002282 -0.040193 0.042831 -0.047249 39.932700 -40.985400 0.000008 0.000006 -9.979410 14.826500 -78.094200 -11.754300 -0.000006 -0.000006 -0.016464 -0.146850 -22.567000
0.000000 0.000000 0.000000 0.000000 0.000000 -0.000000 1.571720 89.286500 -443.923000 94.301800 0.337532 -19.702500 15.735700 0.000005 -0.000001 107.479000 82.158100 -107.316000 8.984550 -0.406207 -0.000000 7.205150 4.693080 0.031888 16.377300 -0.000001 -0.000001 -6.429200 -0.566284 -0.087855 6.456720 -0.000001 -0.000000 -18.016800 -3.038060 -2.869960 12.994200 -0.242716 4.980390 -91.924000 5.339980 -70.153500 5.348090 -0.000007 -0.000001 -33.968400 -18.614600 21.822900 24.328600 0.000019 0.000005 1.142980 22.793900 -2.945960 22.291600 -0.000001 0.000005 25.434600 4.469510 16.922600 12.994500 -0.242716 -4.980390 89.859000 0.511819 -74.612100 -5.348130 -0.000001 -0.000004 -56.672200 -0.791648 -17.698400 -24.328900 0.000322 -0.000009 -17.030800 -4.851070 -74.548000 -22.291500 -0.000108 -0.000004 15.024800 5.532990 -7.935800 -2.192480 -6.469440 -0.000000 174.322000 -1.756500 -56.076500 39.081100 -0.000007 -0.000012 -0.037298 0.008525 77.136200 40.985400 -0.000006 -0.000013 -4.517370 3.252910 -61.987300 11.754300 -0.000000 0.000003 0.002326 0.062477 -14.042700 -2.192510 6.469440 -0.000001 173.609000 18.296600 173.145000 -39.081100 -0.002282 -0.040193 0.063719 -0.109363 28.917300 -40.985400 0.000008 0.000006 -10.590700 14.429500 -63.751600 -11.754300 -0.000006 -0.000006 -0.067673 -0.355941 -31.302400
0.000000 0.000000 0.000000 0.000000 0.000000 -0.000000 2.063950 91.643300 -436.766000 96.210000 -0.776805 -22.673400 15.735700 0.000005 -0.000001 116.683000 83.265500 -117.840000 8.984550 -0.406207 -0.000000 4.351050 6.073070 -2.544350 16.377300 -0.000001 -0.000001 -6.472490 -1.301860 0.125770 6.456720 -0.000001 -0.000000 -16.772300 -5.290070 -1.985210 12.994200 -0.242716 4.980390 -91.364600 3.877160 -70.593500 5.348090 -0.000007 -0.000001 -31.663900 -20.595900 23.425200 24.328600 0.000019 0.000005 0.550539 23.313400 -1.390970 22.291600 -0.000001 0.000005 42.357000 4.118030 22.392500 12.994500 -0.242716 -4.980390 90.217000 -0.839416 -75.498700 -5.348130 -0.000001 -0.000004 -58.802600 -2.278630 -14.794500 -24.328900 0.000322 -0.000009 -22.071800 -4.152250 -79.872400 -22.291500 -0.000108 -0.000004 15.868800 5.629420 -13.231300 -2.192480 -6.469440 -0.000000 171.034000 -1.982170 -57.966400 39.081100 -0.000007 -0.000012 -0.036534 0.019597 61.797400 40.985400 -0.000006 -0.000013 -4.889910 5.025310 -65.281400 11.754300 -0.000000 0.000003 0.002355 0.064500 -13.960700 -2.192510 6.469440 -0.000001 171.818000 17.962200 175.989000 -39.081100 -0.002282 -0.040193 0.061464 -0.158716 20.119500 -40.985400 0.000008 0.000006 -7.111310 11.501100 -47.464000 -11.754300 -0.000006 -0.000006 -0.119806 -0.491254 -37.183800
